<svg xmlns="http://www.w3.org/2000/svg" width="21.89" height="21.191" viewBox="0 0 21.89 21.191">
  <path id="Path_163" data-name="Path 163" d="M-1768.469,47.085q.278-.613.555-1.225c.184-.4.37-.809.554-1.214q.314-.692.626-1.385c.161-.355.323-.71.491-1.08.062.13.119.247.175.365q.253.534.5,1.068c.193.412.385.825.578,1.236.162.344.325.687.487,1.031q.3.627.59,1.255c.162.344.326.687.489,1.03s.321.681.486,1.019a.156.156,0,0,0,.1.074c.59.074,1.181.142,1.771.213.574.068,1.147.136,1.72.206.474.059.947.125,1.421.182.447.054.9.1,1.343.149.337.04.674.089,1.012.132.1.013.208.02.329.032-.341.329-.667.642-.992.957q-.816.79-1.63,1.58c-.562.542-1.126,1.08-1.688,1.621q-.625.6-1.247,1.209a.133.133,0,0,0-.031.1c.064.337.136.673.2,1.01.082.428.158.857.24,1.285.043.222.1.443.139.665.061.306.115.614.175.92.072.367.146.734.219,1.1.108.542.217,1.083.323,1.626.064.333.123.667.187,1.017-.114-.06-.219-.112-.321-.168q-.94-.516-1.879-1.034c-.518-.286-1.035-.576-1.553-.861-.555-.3-1.113-.6-1.667-.909q-.639-.351-1.274-.709a.157.157,0,0,0-.172,0c-.613.35-1.228.7-1.841,1.045-.56.318-1.117.641-1.676.959s-1.116.629-1.673.945c-.482.273-.962.549-1.468.839.041-.222.077-.421.113-.62.065-.361.128-.723.193-1.084.059-.321.12-.641.179-.962.07-.385.138-.771.208-1.156.082-.452.168-.9.251-1.356q.108-.587.213-1.175c.077-.426.151-.852.229-1.277a.144.144,0,0,0-.054-.15c-.621-.58-1.238-1.164-1.856-1.746q-.715-.673-1.431-1.345-.818-.766-1.637-1.529-.319-.3-.636-.6a.378.378,0,0,1-.033-.045l.781-.106c.388-.052.776-.106,1.164-.157.624-.082,1.247-.162,1.87-.245.35-.047.7-.1,1.051-.15q.837-.115,1.675-.226c.34-.046.681-.088,1.021-.138a.172.172,0,0,0,.113-.08" transform="translate(1777.122 -42.18)" fill="#797979"/>
</svg>
