<svg xmlns="http://www.w3.org/2000/svg" width="24.701" height="47.549" viewBox="0 0 24.701 47.549">
  <g id="Group_459" data-name="Group 459" transform="translate(-1712.831 -4656)">
    <path id="Path_43" data-name="Path 43" d="M-5107.6,1792.237q0-10.353,0-20.705c0-.783,0-.785-.767-.785q-2.86,0-5.721,0c-.231,0-.461-.028-.74-.046v-8.156c0-.726,0-.727.75-.727,1.943,0,3.887-.02,5.83.012.542.009.665-.17.659-.681-.027-2.107-.021-4.214-.009-6.32a9.9,9.9,0,0,1,2.545-6.873,9.623,9.623,0,0,1,7.178-3.241c2.4-.05,4.795,0,7.192-.021.44,0,.557.15.554.57q-.025,3.46,0,6.92c0,.443-.15.547-.565.542q-2.371-.031-4.74,0a3.056,3.056,0,0,0-3.139,2.343,4.184,4.184,0,0,0-.079.972c-.008,1.725.012,3.451-.014,5.176-.007.469.115.623.605.618,2.343-.026,4.687-.011,7.029-.011h.732c-.11.917-.2,1.755-.313,2.591-.239,1.85-.493,3.7-.725,5.549-.1.785-.081.79-.89.79q-2.834,0-5.667,0c-.762,0-.762,0-.763.785l-.009,20.7Z" transform="translate(6827.657 2911.313)" fill="#fff"/>
  </g>
</svg>
