<svg xmlns="http://www.w3.org/2000/svg" width="47.419" height="47.398" viewBox="0 0 47.419 47.398">
  <g id="Group_458" data-name="Group 458" transform="translate(-1785.683 -4657.629)">
    <g id="Group_457" data-name="Group 457">
      <path id="Path_44" data-name="Path 44" d="M-4609.694,1766.15c-.887-5.2-3.766-8.74-8.859-10.355a21.864,21.864,0,0,0-6.007-.78c-4.011-.122-8.024-.069-12.037-.07a62.82,62.82,0,0,0-8.787.4,12.557,12.557,0,0,0-11.009,11.6c-.426,4.545-.278,9.1-.272,13.658a63.617,63.617,0,0,0,.41,10.565,12.145,12.145,0,0,0,8.412,10.159,22.88,22.88,0,0,0,7.286.942c4.686.072,9.374.062,14.06.044a32.117,32.117,0,0,0,6.7-.515,12.08,12.08,0,0,0,6.979-3.91,12.373,12.373,0,0,0,2.931-5.714,23.045,23.045,0,0,0,.54-5.123q.088-5.985.071-11.971A53.892,53.892,0,0,0-4609.694,1766.15Zm-12.209,31.617c-1.93.194-3.861.257-5.794.262-4.858.013-9.716.038-14.573-.025a11.775,11.775,0,0,1-5.92-1.47,7.941,7.941,0,0,1-3.643-5.144,27.491,27.491,0,0,1-.5-5.819c-.066-2-.043-4.007-.059-6.011h0c.022-2.942.012-5.885.08-8.826a20.049,20.049,0,0,1,.512-4.924c1.048-3.794,3.4-5.677,7.456-6.268a39.961,39.961,0,0,1,5.738-.285c4.512,0,9.024-.012,13.536.049a18.333,18.333,0,0,1,5.295.625,7.978,7.978,0,0,1,5.774,6.58,35.284,35.284,0,0,1,.407,6.576c.013,4.49.013,8.981-.05,13.47a17.274,17.274,0,0,1-.725,5.61,16.337,16.337,0,0,1-.793,1.786A8.744,8.744,0,0,1-4621.9,1797.767Z" transform="translate(6442.378 2902.695)" fill="#fff"/>
      <path id="Path_45" data-name="Path 45" d="M-4575.211,1827.8c-4.935,1.329-8.8,6.1-8.883,10.975a11.792,11.792,0,0,0,4.4,10.2,11.686,11.686,0,0,0,9.917,2.57,11.651,11.651,0,0,0,7.907-5.187,12.032,12.032,0,0,0,.2-13.347A12.157,12.157,0,0,0-4575.211,1827.8Zm4.673,19.495a7.867,7.867,0,0,1-9.277-7.67c0-.24,0-.479,0-.719h0a7.891,7.891,0,0,1,6.634-7.128,7.922,7.922,0,0,1,9.1,7.531,8.99,8.99,0,0,1-1.33,4.682A8.11,8.11,0,0,1-4570.538,1847.293Z" transform="translate(6381.343 2841.786)" fill="#fff"/>
      <path id="Path_46" data-name="Path 46" d="M-4443.106,1806.427a2.864,2.864,0,0,0-2.853,2.872,2.813,2.813,0,0,0,2.853,2.854,2.877,2.877,0,0,0,2.875-2.855A2.9,2.9,0,0,0-4443.106,1806.427Z" transform="translate(6265.153 2859.391)" fill="#fff"/>
    </g>
  </g>
</svg>
