<svg xmlns="http://www.w3.org/2000/svg" width="42.172" height="42.049" viewBox="0 0 42.172 42.049">
  <g id="Group_460" data-name="Group 460" transform="translate(-1625.86 -4659.707)">
    <path id="Path_47" data-name="Path 47" d="M-5560.07,1855.139a26.917,26.917,0,0,1,2.672-2.456,10.282,10.282,0,0,1,7.883-1.547,9.739,9.739,0,0,1,4.257,1.589,8.376,8.376,0,0,1,3.112,4.526,23.544,23.544,0,0,1,.894,6.984c-.008,4.982-.022,9.963-.01,14.945,0,.478-.152.624-.6.622q-3.869-.016-7.738,0c-.524,0-.609-.256-.608-.7q.014-7.354,0-14.709a7.953,7.953,0,0,0-.633-3.45,3.616,3.616,0,0,0-3.447-2.133,4.8,4.8,0,0,0-4.06,1.459,5.771,5.771,0,0,0-1.178,2.907,10,10,0,0,0-.123,1.823q-.012,7,0,14c0,.767-.032.8-.8.8-2.462,0-4.923-.013-7.384.013-.6.006-.776-.205-.775-.79q.031-13.114.014-26.227c0-1.2.054-1.172,1.235-1.185,2.245-.024,4.489.016,6.733.011.505,0,.576.26.568.677C-5560.082,1853.267-5560.07,1854.244-5560.07,1855.139Z" transform="translate(7209.284 2821.949)" fill="#fff"/>
    <path id="Path_48" data-name="Path 48" d="M-5657.778,1869.11c0-4.429.007-8.858-.008-13.287,0-.545.156-.79.734-.79,2.5,0,5-.032,7.5-.04.637,0,.728.128.728.92q0,11.663,0,23.327c0,1.1-.018,2.205.005,3.307.01.49-.181.661-.661.658q-3.809-.021-7.618,0c-.51,0-.682-.168-.68-.687.017-4.469.009-8.937.009-13.405Z" transform="translate(7284.275 2818.548)" fill="#fff"/>
    <path id="Path_49" data-name="Path 49" d="M-5656.581,1778.2a5.169,5.169,0,0,1-5.15-4.542,5.148,5.148,0,0,1,4.97-5.66,5.14,5.14,0,0,1,5.263,4.8A5.118,5.118,0,0,1-5656.581,1778.2Z" transform="translate(7287.604 2891.707)" fill="#fff"/>
  </g>
</svg>
