<svg xmlns="http://www.w3.org/2000/svg" width="280.722" height="290.886" viewBox="0 0 280.722 290.886">
  <g id="Group_293" data-name="Group 293" transform="matrix(0.545, -0.839, 0.839, 0.545, -796.456, 690.843)">
    <g id="Group_278" data-name="Group 278" transform="translate(823.273 415.025)">
      <path id="Path_115" data-name="Path 115" d="M824.47,419.159c12.231-3.132,27.477-2.49,39.95-1.194A82.205,82.205,0,0,1,899.4,430.273c12.145,7.6,22.742,17.921,31.918,28.845,8.605,10.244,15.208,21.816,23.259,32.451,13.354,17.643,32.8,31.478,54.247,37.264,11.461,3.091,23.846,3.751,35.641,4.374a108.767,108.767,0,0,0,40.828-5.459c.81-.259-.253-2.084-.9-1.875a108.8,108.8,0,0,1-40.828,5.458c-13.2-.7-27.026-1.478-39.662-5.642A100.464,100.464,0,0,1,967.193,503.7c-10.632-9.862-17.744-21.92-26.069-33.631-12.918-18.169-29.482-35.807-49.7-45.813a81.725,81.725,0,0,0-27.91-8.163c-12.484-1.278-27.708-1.939-39.95,1.194-.81.207.227,2.049.9,1.876Z" transform="translate(-823.273 -415.025)" fill="#fff"/>
    </g>
    <g id="Group_279" data-name="Group 279" transform="translate(1081.243 498.71)">
      <path id="Path_116" data-name="Path 116" d="M987.1,495c-.909-4.547,5.764-11.2,8.9-13.816,4.086-3.413,9.471-5.679,14.362-7.7,6.891-2.843,41.739-10.586,38.271,7.166-.938,4.8-8.365,9.8-12.263,11.942-5.275,2.9-13.6,5.829-19.5,6.445a74.975,74.975,0,0,1-18.491-.685c-1.795-.269-11.444-.831-12.643-3.413-.426-.916-1.782-1.212-1.174.1,1.625,3.5,7.773,4.3,11.035,4.969a73.422,73.422,0,0,0,22.173.909c9.715-1.13,36.3-9.992,32.655-24.074-3.179-12.292-24.04-9.945-32.938-7.918-7.713,1.758-16.512,5.443-22.663,10.478-3.75,3.069-10.214,9.611-9.185,14.756.128.645,1.694,1.987,1.465.844Z" transform="translate(-984.407 -467.297)" fill="#fff"/>
    </g>
    <g id="Group_280" data-name="Group 280" transform="translate(1083.682 504.878)">
      <path id="Path_117" data-name="Path 117" d="M1045.85,473.139l.346-.1q-.449-.939-.9-1.876c-9.94,3.011-20.548,4.944-30.711,7.147-9.656,2.094-20.745,4.065-28.5,10.618-.589.5.642,2.238,1.181,1.782,8.416-7.115,20.44-8.861,30.924-11.093,9.246-1.969,18.968-3.839,28-6.577.81-.247-.24-2.068-.9-1.876l-.346.1c-.812.235.24,2.069.9,1.876Z" transform="translate(-985.931 -471.149)" fill="#fff"/>
    </g>
    <g id="Group_281" data-name="Group 281" transform="translate(1080.872 507.03)">
      <path id="Path_118" data-name="Path 118" d="M1045.866,472.542c-10.147,5.506-20.1,9.956-31.383,12.716-9.643,2.358-20.071,5.4-30.055,4.449-.687-.066.17,1.806.9,1.876,10.81,1.026,22.365-2.419,32.767-5.123,10.353-2.691,19.573-7.047,28.952-12.137.625-.339-.5-2.15-1.182-1.782Z" transform="translate(-984.175 -472.493)" fill="#fff"/>
    </g>
    <g id="Group_282" data-name="Group 282" transform="translate(1027.899 528.977)">
      <path id="Path_119" data-name="Path 119" d="M953.94,489.489l-.6.035,1.138,1.719c2.032-3.224,13.792,5.1,15.888,6.6a49.1,49.1,0,0,1,15.23,16.807c4,7.593,10.307,21.488,1.364,27.975-12.5,9.066-25.506-10.9-29.562-20.358-2.781-6.486-3.681-13.014-3.857-20.015-.1-3.788-2.36-11.586,1.029-14.2.6-.466-.608-2.225-1.18-1.784-4.151,3.2-1.451,13.187-1.3,17.338a53,53,0,0,0,5.97,22.634c4.7,9.182,19.015,27.809,30.838,17.6,9.526-8.224.532-25.862-4.825-33.855a55.848,55.848,0,0,0-15.635-15.063c-2.361-1.563-12.872-9.151-15.336-5.245-.351.554.541,1.753,1.138,1.719l.6-.035c.765-.045-.173-1.918-.9-1.876Z" transform="translate(-951.087 -486.202)" fill="#fff"/>
    </g>
    <g id="Group_283" data-name="Group 283" transform="translate(1028.08 531.049)">
      <path id="Path_120" data-name="Path 120" d="M951.976,489.268c18.092,8.951,27,29.2,33.137,47.469.247.736,1.808,1.707,1.366.391-6.415-19.111-15.77-40.168-34.707-49.537-1.076-.533-.41,1.374.2,1.678Z" transform="translate(-951.201 -487.497)" fill="#fff"/>
    </g>
    <g id="Group_284" data-name="Group 284" transform="translate(1027.835 532.482)">
      <path id="Path_121" data-name="Path 121" d="M952.049,490.237c7.741,1.228,11.842,14.929,13.85,20.795a128.017,128.017,0,0,0,6.375,15.184c2.915,5.9,8.669,13.546,16.107,13.153.762-.04-.173-1.915-.9-1.876-15.022.793-18.717-25.806-23.789-35.644-2.2-4.262-6.742-12.582-12.212-13.448-.965-.154-.1,1.731.57,1.836Z" transform="translate(-951.048 -488.391)" fill="#fff"/>
    </g>
    <g id="Group_285" data-name="Group 285" transform="translate(977.398 478.937)">
      <path id="Path_122" data-name="Path 122" d="M921.021,487.461c.826-4.414,5.8-8.114,8.98-11.056a77.38,77.38,0,0,1,12.584-9.471,89.067,89.067,0,0,1,13.6-6.628c3.083-1.2,6.3-2.578,9.6-3.023,5.8-.783,12.9,1.066,9.156,10.389-3.5,8.716-15.417,15.712-24.04,18.155-4.455,1.262-8.98,1.289-13.567,1.623-4.681.343-10.659,1.678-15.3.509-.922-.232-.091,1.671.568,1.838,5.622,1.417,12.539-.295,18.23-.661,6.918-.448,13.008-1.494,19.186-4.792,7.217-3.849,21.751-14.474,16.868-24.532-4.918-10.128-21.315-1.8-28,1.345a79.155,79.155,0,0,0-20.073,13.464c-3.479,3.218-8.351,6.69-9.27,11.6-.123.661,1.292,2.192,1.47,1.241Z" transform="translate(-919.543 -454.946)" fill="#fff"/>
    </g>
    <g id="Group_286" data-name="Group 286" transform="translate(977.775 479.775)">
      <path id="Path_123" data-name="Path 123" d="M921.142,486.6c10.861-3.645,22.987-5.919,31.792-13.619,2.589-2.264,17.159-19.589,21.956-14.988,1,.957.727-.879.174-1.41-4.792-4.595-14.678,6.348-17.329,8.956-5.525,5.435-10.717,10.144-18.171,12.71-6.516,2.243-13.072,4.377-19.6,6.57-.6.2.421,2.038,1.181,1.782Z" transform="translate(-919.779 -455.469)" fill="#fff"/>
    </g>
    <g id="Group_287" data-name="Group 287" transform="translate(975.799 480.655)">
      <path id="Path_124" data-name="Path 124" d="M975.267,456.019c-10.477-.014-12.8,15.051-19.21,21.171-9.053,8.639-25.641,8.088-37.254,7.254-.7-.05.166,1.823.9,1.876,11.176.8,24.179.9,34.291-4.829,4.09-2.315,7.344-6.634,9.543-10.709,2.987-5.536,5.081-12.9,12.632-12.888.738,0-.168-1.875-.9-1.876Z" transform="translate(-918.544 -456.019)" fill="#fff"/>
    </g>
    <g id="Group_288" data-name="Group 288" transform="translate(925.978 419.899)">
      <path id="Path_125" data-name="Path 125" d="M889.108,451.907c-2.835-6.841,13.664-17.86,18.238-20.776a105.126,105.126,0,0,1,13.173-7.156c4.326-1.952,13.843-6.024,18.706-3.34q2.865,5.151,5.727,10.3a14.674,14.674,0,0,1-3.359,4.451,37.164,37.164,0,0,1-4.638,3.625,63.843,63.843,0,0,1-12.367,7.033,83.348,83.348,0,0,1-32.3,6.793q.521.915,1.041,1.83l.885-.807c.576-.527-.671-2.249-1.18-1.784l-.885.807c-.572.522.419,1.833,1.041,1.83,15.9-.109,31.872-4.649,44.949-13.919,6.626-4.7,13.972-13.983,4.705-20.2-10.64-7.135-26.521,2.533-35.615,8.1-5.876,3.6-22.951,14.471-19.292,23.3.391.941,1.723,1.231,1.174-.1Z" transform="translate(-887.425 -418.069)" fill="#fff"/>
    </g>
    <g id="Group_289" data-name="Group 289" transform="translate(925.9 420.277)">
      <path id="Path_126" data-name="Path 126" d="M942.489,421.182c-5.989,10.61-13.408,17.393-25.02,21.258-9.831,3.272-19.884,4.872-29.77,7.906l1.041,1.828a84.961,84.961,0,0,0,26.547-16.562c3.111-2.931,5.932-6.1,9.4-8.661,1-.738,14.04-7.891,14.43-7.179.474.869,1.865,1.174,1.172-.1-.086-.158-.173-.317-.259-.477-.186-.341-.568-.935-1.037-.89-8.7.852-16.8,7.433-22.787,13.235-7.989,7.744-18.139,14.9-28.649,18.848-.607.227.432,2.016,1.041,1.83,10.786-3.311,21.77-4.822,32.427-8.754,10.674-3.937,17.329-10.967,22.836-20.723.352-.623-.983-2.256-1.375-1.563Z" transform="translate(-887.376 -418.305)" fill="#fff"/>
    </g>
    <g id="Group_290" data-name="Group 290" transform="translate(925.155 468.551)">
      <path id="Path_127" data-name="Path 127" d="M900.815,451.022c1.838,5.562,5.224,10.579,7.321,16.123a105.381,105.381,0,0,1,5.948,20.524c1.414,8.876,1.777,34.04-11.988,34.337-7.63.165-12.279-21.767-13.1-27.74a57.869,57.869,0,0,1,.115-18.786c1.284-6.526,3.077-12.371,7.091-17.739,1.814-2.425,4.692-4.662,5.416-7.739.154-.655-1.246-2.2-1.47-1.242-.674,2.866-3.625,5.121-5.322,7.42a32.656,32.656,0,0,0-5.022,9.13,56.771,56.771,0,0,0-2.831,20.595,79.926,79.926,0,0,0,5.081,24.213c1.561,4.246,3.777,11.13,8.41,13.187,12.147,5.39,15.845-18.488,15.858-25.419a72.3,72.3,0,0,0-3.943-22.152c-1.169-3.637-2.474-7.236-3.879-10.789-1.791-4.529-4.811-8.967-6.321-13.535-.243-.738-1.8-1.71-1.366-.391Z" transform="translate(-886.911 -448.458)" fill="#fff"/>
    </g>
    <g id="Group_291" data-name="Group 291" transform="translate(934.908 468.83)">
      <path id="Path_128" data-name="Path 128" d="M895.928,449.288a58.282,58.282,0,0,1,2.289,21.363c-.472,7.039-3.565,13.346-4.739,20.18-1.8,10.462,1.851,21.7,5.144,31.526.247.736,1.806,1.708,1.366.391l-.768-2.293c-.247-.736-1.806-1.708-1.364-.391l1.313.235q-.4-1.22-.8-2.438c-.3-1.641-1.025-3.268-1.434-4.893a76.241,76.241,0,0,1-1.345-9c-.5-3.756-1.354-7.033-.78-10.848.525-3.492,1.867-6.743,2.781-10.136,2.909-10.779,3.146-22.591-.3-33.306-.238-.743-1.79-1.715-1.366-.391Z" transform="translate(-893.003 -448.633)" fill="#fff"/>
    </g>
    <g id="Group_292" data-name="Group 292" transform="translate(938.252 472.417)">
      <path id="Path_129" data-name="Path 129" d="M895.9,451.025c-1.612,2-.4,5.344.139,7.593,1.346,5.667,3.015,11.255,4.527,16.869.908,3.368,2.1,6.548,2.344,10.081.287,4.086-.652,8.325-.925,12.391-.243,3.605-.162,7.392-.845,10.944-.621,3.224-2.208,6.112-2.55,9.386-.069.664,1.372,2.174,1.47,1.241.3-2.832,1.668-5.493,2.262-8.258a65.066,65.066,0,0,0,.98-9.521c.4-6.151,1.651-12.206.65-18.337a112.418,112.418,0,0,0-4.153-15.589c-1.036-3.264-4.773-12.446-2.523-15.24.428-.531-.844-2.224-1.375-1.563Z" transform="translate(-895.092 -450.874)" fill="#fff"/>
    </g>
  </g>
</svg>
