<svg xmlns="http://www.w3.org/2000/svg" width="307.026" height="229.141" viewBox="0 0 307.026 229.141">
  <g id="Group_309" data-name="Group 309" transform="translate(-1309.78 22.826) rotate(-17)">
    <g id="Group_294" data-name="Group 294" transform="translate(1269.669 441.182)">
      <path id="Path_130" data-name="Path 130" d="M1499.253,445.144c-11.725-3-26.339-2.386-38.3-1.146a78.823,78.823,0,0,0-33.529,11.8c-11.642,7.283-21.8,17.179-30.6,27.65-8.249,9.82-14.577,20.913-22.294,31.107-12.8,16.912-31.439,30.174-52,35.72-10.986,2.963-22.858,3.6-34.164,4.193a104.282,104.282,0,0,1-39.135-5.233c-.778-.25.242-2,.863-1.8a104.29,104.29,0,0,0,39.136,5.232c12.658-.668,25.908-1.416,38.019-5.408a96.3,96.3,0,0,0,35.186-21.081c10.192-9.453,17.008-21.012,24.989-32.238,12.383-17.418,28.262-34.324,47.638-43.915a78.336,78.336,0,0,1,26.752-7.825c11.968-1.225,26.56-1.858,38.3,1.145.777.2-.216,1.963-.864,1.8Z" transform="translate(-1248.957 -441.182)" fill="#fff"/>
    </g>
    <g id="Group_295" data-name="Group 295" transform="translate(1210.218 521.4)">
      <path id="Path_131" data-name="Path 131" d="M1271.243,520.013c.872-4.357-5.523-10.732-8.531-13.242-3.917-3.272-9.079-5.443-13.767-7.38-6.605-2.727-40.008-10.149-36.686,6.868.9,4.6,8.018,9.4,11.757,11.448,5.055,2.776,13.031,5.588,18.7,6.179a71.863,71.863,0,0,0,17.725-.657c1.722-.258,10.97-.8,12.121-3.272.408-.878,1.707-1.162,1.123.092-1.558,3.352-7.449,4.119-10.578,4.764a70.33,70.33,0,0,1-21.255.87c-9.312-1.082-34.8-9.576-31.3-23.076,3.048-11.783,23.044-9.532,31.575-7.589,7.392,1.685,15.827,5.218,21.724,10.044,3.593,2.942,9.79,9.212,8.8,14.145-.123.618-1.624,1.9-1.4.807Z" transform="translate(-1210.218 -493.453)" fill="#fff"/>
    </g>
    <g id="Group_296" data-name="Group 296" transform="translate(1213.44 527.313)">
      <path id="Path_132" data-name="Path 132" d="M1212.931,499.214l-.332-.1q.433-.9.864-1.8c9.53,2.887,19.7,4.737,29.441,6.851,9.254,2.007,19.886,3.9,27.315,10.176.566.479-.615,2.147-1.131,1.71-8.068-6.82-19.594-8.494-29.645-10.634-8.863-1.888-18.183-3.68-26.844-6.306-.776-.235.232-1.981.864-1.8l.332.1c.778.226-.229,1.983-.864,1.8Z" transform="translate(-1212.318 -497.306)" fill="#fff"/>
    </g>
    <g id="Group_297" data-name="Group 297" transform="translate(1213.743 529.374)">
      <path id="Path_133" data-name="Path 133" d="M1213.821,498.7c9.727,5.279,19.269,9.546,30.085,12.191,9.242,2.261,19.238,5.173,28.808,4.265.659-.063-.161,1.731-.864,1.8-10.36.982-21.437-2.319-31.408-4.911-9.926-2.58-18.764-6.757-27.752-11.634-.6-.325.48-2.061,1.131-1.71Z" transform="translate(-1212.515 -498.65)" fill="#fff"/>
    </g>
    <g id="Group_298" data-name="Group 298" transform="translate(1284.712 550.413)">
      <path id="Path_134" data-name="Path 134" d="M1296.276,515.51l.578.034-1.091,1.648c-1.949-3.091-13.222,4.885-15.231,6.33a47.09,47.09,0,0,0-14.6,16.109c-3.837,7.28-9.88,20.6-1.307,26.818,11.979,8.691,24.452-10.449,28.339-19.515,2.666-6.218,3.526-12.475,3.7-19.186.092-3.631,2.262-11.106-.987-13.612-.578-.447.583-2.133,1.131-1.71,3.979,3.069,1.392,12.641,1.246,16.62a50.828,50.828,0,0,1-5.721,21.7c-4.509,8.8-18.229,26.655-29.562,16.87-9.13-7.884-.51-24.791,4.625-32.453a53.534,53.534,0,0,1,14.987-14.439c2.264-1.5,12.34-8.772,14.7-5.028.335.531-.52,1.681-1.091,1.648l-.579-.034c-.733-.043.166-1.839.864-1.8Z" transform="translate(-1258.759 -512.359)" fill="#fff"/>
    </g>
    <g id="Group_299" data-name="Group 299" transform="translate(1290.897 552.399)">
      <path id="Path_135" data-name="Path 135" d="M1295.938,515.352c-17.343,8.58-25.885,27.993-31.764,45.5-.236.7-1.733,1.636-1.309.373,6.151-18.318,15.116-38.5,33.27-47.485,1.031-.509.395,1.317-.2,1.61Z" transform="translate(-1262.79 -513.653)" fill="#fff"/>
    </g>
    <g id="Group_300" data-name="Group 300" transform="translate(1288.965 553.774)">
      <path id="Path_136" data-name="Path 136" d="M1296.631,516.317c-7.422,1.177-11.352,14.311-13.276,19.934a123.229,123.229,0,0,1-6.111,14.555c-2.8,5.657-8.312,12.985-15.442,12.609-.73-.038.166-1.836.864-1.8,14.4.76,17.942-24.737,22.8-34.167,2.106-4.085,6.461-12.061,11.7-12.891.925-.147.1,1.659-.545,1.76Z" transform="translate(-1261.531 -514.548)" fill="#fff"/>
    </g>
    <g id="Group_301" data-name="Group 301" transform="translate(1317.453 502.447)">
      <path id="Path_137" data-name="Path 137" d="M1334.6,512.272c-.793-4.231-5.558-7.778-8.609-10.6a74.253,74.253,0,0,0-12.062-9.077,85.361,85.361,0,0,0-13.038-6.353,41.212,41.212,0,0,0-9.206-2.9c-5.563-.75-12.363,1.022-8.777,9.958,3.353,8.355,14.779,15.06,23.044,17.4,4.271,1.209,8.609,1.234,13,1.556,4.487.328,10.218,1.608,14.662.488.884-.223.088,1.6-.545,1.762-5.39,1.357-12.018-.282-17.475-.635-6.631-.428-12.469-1.432-18.391-4.592-6.917-3.691-20.85-13.875-16.169-23.515,4.716-9.708,20.432-1.728,26.842,1.289a75.874,75.874,0,0,1,19.243,12.906c3.333,3.085,8,6.413,8.884,11.119.12.634-1.237,2.1-1.407,1.189Z" transform="translate(-1280.094 -481.103)" fill="#fff"/>
    </g>
    <g id="Group_302" data-name="Group 302" transform="translate(1319.541 503.25)">
      <path id="Path_138" data-name="Path 138" d="M1333.619,511.468c-10.411-3.494-22.034-5.674-30.477-13.055-2.48-2.17-16.447-18.778-21.046-14.369-.958.919-.7-.842-.166-1.351,4.593-4.4,14.068,6.085,16.609,8.585,5.3,5.209,10.273,9.724,17.42,12.184,6.245,2.15,12.529,4.2,18.79,6.3.577.193-.4,1.954-1.131,1.708Z" transform="translate(-1281.455 -481.626)" fill="#fff"/>
    </g>
    <g id="Group_303" data-name="Group 303" transform="translate(1319.405 504.093)">
      <path id="Path_139" data-name="Path 139" d="M1282.492,482.176c10.043-.014,12.268,14.427,18.414,20.293,8.678,8.281,24.58,7.755,35.713,6.955.671-.048-.161,1.748-.864,1.8-10.713.769-23.178.858-32.871-4.629-3.919-2.219-7.039-6.36-9.146-10.265-2.864-5.307-4.873-12.365-12.11-12.354-.707,0,.161-1.8.864-1.8Z" transform="translate(-1281.366 -482.176)" fill="#fff"/>
    </g>
    <g id="Group_304" data-name="Group 304" transform="translate(1365.352 445.854)">
      <path id="Path_140" data-name="Path 140" d="M1367,476.662c2.718-6.558-13.1-17.121-17.484-19.915a100.754,100.754,0,0,0-12.627-6.86c-4.146-1.871-13.27-5.775-17.931-3.2q-2.744,4.938-5.49,9.874a14.067,14.067,0,0,0,3.22,4.266,35.625,35.625,0,0,0,4.446,3.474,61.112,61.112,0,0,0,11.855,6.74,79.874,79.874,0,0,0,30.963,6.513q-.5.877-1,1.754l-.849-.773c-.552-.5.643-2.156,1.133-1.71l.847.773c.549.5-.4,1.757-1,1.754-15.24-.1-30.552-4.457-43.085-13.342-6.353-4.5-13.394-13.4-4.51-19.361,10.2-6.84,25.422,2.428,34.138,7.768,5.632,3.45,22,13.872,18.494,22.337-.375.9-1.653,1.18-1.125-.092Z" transform="translate(-1311.305 -444.226)" fill="#fff"/>
    </g>
    <g id="Group_305" data-name="Group 305" transform="translate(1368.533 446.216)">
      <path id="Path_141" data-name="Path 141" d="M1314.753,447.22c5.742,10.17,12.854,16.672,23.983,20.377,9.424,3.137,19.062,4.67,28.538,7.578l-1,1.753a81.44,81.44,0,0,1-25.448-15.876c-2.982-2.811-5.684-5.845-9.015-8.3-.959-.709-13.459-7.564-13.83-6.881-.456.833-1.79,1.125-1.125-.092.083-.152.166-.3.249-.457.18-.327.546-.9.995-.853,8.338.816,16.106,7.125,21.843,12.687,7.658,7.423,17.389,14.285,27.464,18.067.58.218-.416,1.932-1,1.753-10.34-3.172-20.87-4.622-31.086-8.39-10.231-3.774-16.61-10.512-21.89-19.866-.338-.6.944-2.161,1.318-1.5Z" transform="translate(-1313.378 -444.462)" fill="#fff"/>
    </g>
    <g id="Group_306" data-name="Group 306" transform="translate(1395.256 492.49)">
      <path id="Path_142" data-name="Path 142" d="M1345.658,477.073c-1.762,5.331-5.008,10.141-7.016,15.455a100.9,100.9,0,0,0-5.7,19.674c-1.354,8.508-1.7,32.63,11.491,32.915,7.316.158,11.771-20.865,12.557-26.592a55.467,55.467,0,0,0-.111-18.006c-1.229-6.255-2.95-11.858-6.8-17-1.739-2.325-4.5-4.47-5.19-7.42-.147-.626,1.192-2.1,1.407-1.189.646,2.747,3.475,4.909,5.1,7.112a31.288,31.288,0,0,1,4.814,8.754,54.417,54.417,0,0,1,2.715,19.742,76.6,76.6,0,0,1-4.873,23.208c-1.5,4.071-3.62,10.67-8.061,12.642-11.642,5.167-15.188-17.724-15.2-24.366a69.356,69.356,0,0,1,3.78-21.235c1.12-3.487,2.373-6.938,3.718-10.344,1.717-4.34,4.612-8.6,6.059-12.972.235-.708,1.728-1.639,1.309-.374Z" transform="translate(-1330.792 -474.615)" fill="#fff"/>
    </g>
    <g id="Group_307" data-name="Group 307" transform="translate(1407.331 492.758)">
      <path id="Path_143" data-name="Path 143" d="M1342.627,475.418a55.874,55.874,0,0,0-2.195,20.478c.453,6.748,3.418,12.791,4.544,19.343,1.722,10.03-1.774,20.8-4.932,30.222-.236.706-1.731,1.637-1.309.374l.737-2.2c.236-.706,1.731-1.637,1.309-.374l-1.258.226q.382-1.169.766-2.337c.289-1.575.982-3.132,1.377-4.69a73.153,73.153,0,0,0,1.288-8.628c.477-3.6,1.3-6.742.749-10.4-.5-3.347-1.791-6.466-2.667-9.716-2.789-10.333-3.016-21.655.284-31.928.229-.711,1.717-1.642,1.309-.373Z" transform="translate(-1338.66 -474.79)" fill="#fff"/>
    </g>
    <g id="Group_308" data-name="Group 308" transform="translate(1402.044 496.197)">
      <path id="Path_144" data-name="Path 144" d="M1343.3,477.175c1.544,1.92.378,5.123-.135,7.279-1.291,5.433-2.89,10.789-4.34,16.171-.87,3.229-2.009,6.277-2.247,9.664-.273,3.916.626,7.98.889,11.878.232,3.456.154,7.086.81,10.491.6,3.089,2.115,5.859,2.443,9,.066.638-1.315,2.084-1.409,1.191-.282-2.715-1.6-5.265-2.168-7.916a62.539,62.539,0,0,1-.939-9.127c-.381-5.9-1.582-11.7-.622-17.578a107.7,107.7,0,0,1,3.979-14.943c.993-3.129,4.575-11.93,2.42-14.608-.411-.51.807-2.132,1.318-1.5Z" transform="translate(-1335.215 -477.031)" fill="#fff"/>
    </g>
  </g>
</svg>
