<svg xmlns="http://www.w3.org/2000/svg" width="38.604" height="31.776" viewBox="0 0 38.604 31.776">
  <g id="Group_461" data-name="Group 461" transform="translate(-1541.661 -4668.612)">
    <path id="Path_50" data-name="Path 50" d="M-6165.686,1824h2.2c.107.229.3.129.472.126a7.064,7.064,0,0,1,4.182,2.384.261.261,0,0,0,.332.119,24.219,24.219,0,0,0,4.021-1.521,1.206,1.206,0,0,1,.761-.29c-.4,1.823-1.8,2.884-3.062,4.08.566.335,1.009-.061,1.474-.052a.243.243,0,0,0,.306-.147c.794-.143,1.477-.658,2.372-.752-.133.2-.217.328-.307.454a19.65,19.65,0,0,1-3.1,3.152,1.065,1.065,0,0,0-.457.911,23.085,23.085,0,0,1-3.7,12.983,21.787,21.787,0,0,1-9.858,8.477,19.185,19.185,0,0,1-3.868,1.247c-1.031.214-2.067.4-3.1.6h-4.72c-.08-.188-.258-.142-.4-.164a26.323,26.323,0,0,1-3.68-.778,19.689,19.689,0,0,1-5.414-2.509,16.5,16.5,0,0,0,11.415-3.432,10.81,10.81,0,0,1-3.54-1.037,7.956,7.956,0,0,1-3.584-3.781c-.291-.6-.061-.764.524-.683a7.925,7.925,0,0,0,2.707-.213c-4.757-1.322-6.587-5.486-6.255-7.9,1.105.383,2.143,1.054,3.393.786a.438.438,0,0,0-.012.043l.028-.023a15.3,15.3,0,0,1-1.723-1.654,7.845,7.845,0,0,1-1.139-7.928c.362-.983.5-1,1.2-.219a24.912,24.912,0,0,0,3.126,2.9,24.489,24.489,0,0,0,7.385,3.843,19.3,19.3,0,0,0,4.766.8c.527.041.536-.126.487-.55a7.957,7.957,0,0,1,.838-4.906,8.092,8.092,0,0,1,4.909-4.08C-6166.366,1824.195-6165.975,1824.266-6165.686,1824Z" transform="translate(7732.89 2844.612)" fill="#fff"/>
  </g>
</svg>
