<svg id="Capa_1" enable-background="new 0 0 512 512" height="512" viewBox="0 0 512 512" width="512" xmlns="http://www.w3.org/2000/svg"><g><g><path d="m446.662 426.814c40.621-45.31 65.338-105.172 65.338-170.814 0-141.385-114.615-256-256-256s-256 114.615-256 256c0 65.642 24.717 125.504 65.338 170.814z" fill="#0c99e6"/></g><g><path d="m219.077 121.842.03.011c-7.985 21.133 6.293 26.528-1.693 47.661s-22.264 15.738-30.249 36.872c-7.986 21.134 6.292 26.529-1.694 47.664-.285.755-.578 1.476-.879 2.165-9.648 22.124-35.254 32.485-57.832 23.954s-34.934-33.237-27.54-56.213c.23-.716.487-1.451.772-2.206 7.986-21.134 22.264-15.739 30.25-36.873 7.986-21.133-6.292-26.529 1.693-47.662s22.263-15.738 30.249-36.87l.03.011z" fill="#aa1e1e"/></g><g><path d="m349.831 167.035-91.47 49.777-96.193-49.777s-13.169-43.368-6.169-69.368 28.708-28.667 28.708-28.667 7.293-40 75.293-40 121.792 44 89.831 138.035z" fill="#ff3345"/></g><g><path d="m156 97.667c-7 26 6.169 69.368 6.169 69.368l47.751 24.709 4.099-4.245v-68.025c-16.002-12.411-34.519-33.974-29.312-50.474 0 0-21.707 2.667-28.707 28.667z" fill="#e32828"/></g><g><path d="m125.909 476.511h260.182c22.668-13.405 43.093-30.202 60.571-49.697-9.708-28.375-20.614-54.825-29.662-62.814-22-19.425-117.305-35.119-117.305-35.119v-112.07h-87.39v112.07s-95.305 15.694-117.305 35.119c-9.048 7.989-19.954 34.439-29.662 62.814 17.477 19.495 37.903 36.292 60.571 49.697z" fill="#ffaea1"/></g><g><path d="m386.091 476.511c7.915-4.681 15.55-9.783 22.887-15.261v-25.497c0-5.732-8.076-6.957-9.775-1.482z" fill="#f4958c"/></g><g><path d="m125.909 476.511c-7.915-4.681-15.55-9.783-22.887-15.261v-25.497c0-5.732 8.076-6.957 9.775-1.482z" fill="#f4958c"/></g><g><path d="m256 512c47.499 0 91.969-12.944 130.091-35.489l-1.376-1.291c-15.999-15.612-25.02-37.02-25.02-59.375v-74.313c-14.5-3.72-28.925-6.787-40-8.97v54.547c0 35.178-28.517 63.695-63.695 63.695s-63.695-28.517-63.695-63.695v-54.547c-11.075 2.183-25.5 5.25-40 8.97v74.313c0 22.354-9.021 43.762-25.02 59.375l-1.376 1.291c38.122 22.545 82.592 35.489 130.091 35.489z" fill="#ffe854"/></g><g><path d="m225.403 481.403c0-16.899 13.699-30.598 30.597-30.598-35.178 0-63.695-28.517-63.695-63.695v-54.547c-11.075 2.183-25.5 5.25-40 8.97v74.313c0 22.354-9.021 43.762-25.02 59.375l-1.376 1.291c38.122 22.544 82.592 35.488 130.091 35.488-16.898 0-30.597-13.699-30.597-30.597z" fill="#ffcf11"/></g><g><path d="m212.305 216.812v112.07c46.932 0 73.247-36.019 73.247-36.019l14.143-76.05h-87.39z" fill="#f4958c"/></g><g><path d="m186.925 183.668s-8.897-21.662-24.756-16.633.383 51.97 31.332 54.928z" fill="#f4958c"/></g><g><path d="m327.293 156.333c-.906-2.21-1.638-5.373-2.332-9.028l-68.961-20-68.961 20c-.694 3.655-1.426 6.818-2.332 9.028-4.075 9.938-9.195 11.963-9.876 12.194-.05 1.554-.081 3.117-.081 4.694 0 59.83 36.377 129.999 81.249 129.999 44.873 0 81.249-70.169 81.249-129.999 0-1.578-.031-3.141-.081-4.694-.68-.23-5.799-2.256-9.874-12.194z" fill="#ffcfc2"/></g><g><path d="m202.691 173.222c0-11.148 1.279-21.7 3.628-31.507l-19.279 5.591c-.694 3.655-1.426 6.818-2.332 9.028-4.075 9.938-9.195 11.963-9.876 12.194-.05 1.554-.081 3.117-.081 4.694 0 59.83 36.377 129.999 81.249 129.999 4.764 0 9.431-.798 13.97-2.284-38.215-12.506-67.279-74.237-67.279-127.715z" fill="#ffaea1"/></g><g><path d="m256 116.333c-28.401 0-39.768-9.004-49.595-9.028h-.011c-1.818-.003-3.584.301-5.395 1.028-9.199 3.689-11.304 24.987-13.961 38.972h137.922c-2.657-13.986-4.762-35.283-13.961-38.972-1.811-.726-3.577-1.031-5.395-1.028h-.011c-9.825.024-21.192 9.028-49.593 9.028z" fill="#fff"/></g><g><path d="m240.514 131.819c0-8.553 6.933-15.486 15.486-15.486-28.401 0-39.768-9.004-49.595-9.028h-.011c-1.818-.003-3.584.301-5.395 1.028-9.199 3.689-11.304 24.987-13.961 38.972h68.962c-8.553.001-15.486-6.933-15.486-15.486z" fill="#ebf0f3"/></g><g><path d="m192.305 406.455h-40c-8.284 0-15-6.716-15-15 0-8.284 6.716-15 15-15h40c8.284 0 15 6.716 15 15 0 8.284-6.716 15-15 15z" fill="#fff"/></g><g><path d="m169.805 391.455c0-8.284 6.716-15 15-15h-32.5c-8.284 0-15 6.716-15 15s6.716 15 15 15h32.5c-8.284 0-15-6.716-15-15z" fill="#ebf0f3"/></g><g><path d="m331.83 220.625v25c0 11.046-8.954 20-20 20h-48.33c-4.142 0-7.5 3.358-7.5 7.5 0 4.142 3.358 7.5 7.5 7.5h48.331c19.33 0 35-15.67 35-35v-25z" fill="#3b3868"/></g><g><path d="m328.391 240.602 19.681 3.559c10.869 1.965 21.274-5.253 23.24-16.122l7.118-39.362c1.966-10.869-5.253-21.274-16.122-23.24l-19.681-3.559z" fill="#65669e"/></g><g><path d="m376.65 198.518-5.338 29.521c-1.966 10.87-12.37 18.087-23.24 16.122l-19.681-3.559 5.338-29.521 19.681 3.559c10.87 1.966 21.274-5.252 23.24-16.122z" fill="#504a7f"/></g><g><path d="m327.501 245.523c-4.076-.737-6.783-4.639-6.046-8.715l13.346-73.803c.737-4.076 4.639-6.783 8.715-6.046 4.076.737 6.783 4.639 6.046 8.715l-13.346 73.803c-.737 4.076-4.639 6.783-8.715 6.046z" fill="#65669e"/></g></g></svg>